<?xml version="1.0" standalone="no"?><!DOCTYPE svg PUBLIC "-//W3C//DTD SVG 1.1//EN" "http://www.w3.org/Graphics/SVG/1.1/DTD/svg11.dtd"><svg t="1607411693360" class="icon" viewBox="0 0 1100 1024" version="1.1" xmlns="http://www.w3.org/2000/svg" p-id="5149" xmlns:xlink="http://www.w3.org/1999/xlink" width="214.84375" height="200"><defs><style type="text/css"></style></defs><path d="M660.992 635.392l26.624 61.44h-53.248l26.624-61.44z m147.968-123.392h111.104v73.728h41.472l-35.84 53.248-5.632 9.216V882.176h-518.144V623.104h190.976l-79.872 184.832h74.24l16.384-36.864h115.712l16.384 36.864h74.24L729.088 623.104H808.96v-111.104z m-370.176-222.208h36.864v74.24h-36.864c-20.48 0-36.864-16.384-36.864-36.864s16.384-37.376 36.864-37.376z m0-73.728c-60.928 0-111.104 50.176-111.104 111.104 0 60.928 50.176 111.104 111.104 111.104h36.864v74.24h74.24V216.576h-111.104z m-259.072-74.24h555.008v407.04h-555.008v-270.848l-5.632-9.216-35.84-53.248h41.472V141.824z m-73.728-73.728V141.824h-105.984l38.4 57.856 68.096 101.888v321.024H328.192v332.8h665.6v-284.16l68.096-101.888 38.4-57.856h-105.984v-73.728h-184.832v-369.664h-703.488z" p-id="5150" fill="#1296db"></path></svg>